<svg width="58" height="58" viewBox="0 0 58 58" fill="none" xmlns="http://www.w3.org/2000/svg">
<path d="M17.9167 32.5C20.8849 24.6396 25.9204 17.7263 32.4914 12.49C39.0624 7.25375 46.9253 3.88866 55.25 2.75C54.1113 11.0747 50.7463 18.9376 45.51 25.5086C40.2737 32.0796 33.3604 37.115 25.5 40.0833M24.9167 20.25C30.5842 22.8659 35.1342 27.4158 37.75 33.0833M2.75 55.25V43.5833C2.75 41.2759 3.43424 39.0203 4.71619 37.1017C5.99814 35.1831 7.82022 33.6878 9.95203 32.8047C12.0838 31.9217 14.4296 31.6907 16.6927 32.1408C18.9558 32.591 21.0346 33.7021 22.6662 35.3338C24.2979 36.9654 25.409 39.0442 25.8592 41.3073C26.3093 43.5704 26.0783 45.9162 25.1953 48.048C24.3122 50.1798 22.8169 52.0019 20.8983 53.2838C18.9797 54.5658 16.7241 55.25 14.4167 55.25H2.75Z" stroke="white" stroke-width="4" stroke-linecap="round" stroke-linejoin="round"/>
</svg>
