<svg width="58" height="52" viewBox="0 0 58 52" fill="none" xmlns="http://www.w3.org/2000/svg">
<path d="M29 26V26.0292M40.6667 26V26.0292M17.3333 26V26.0292M55.25 49.3336L51.4583 37.9586C54.7354 33.1119 55.9209 27.3723 54.7944 21.807C53.6679 16.2417 50.3061 11.2293 45.334 7.7019C40.362 4.17449 34.118 2.37206 27.7631 2.62972C21.4082 2.88739 15.3747 5.18762 10.7846 9.10274C6.19445 13.0179 3.35996 18.2814 2.80814 23.9148C2.25632 29.5482 4.02472 35.168 7.78454 39.7294C11.5444 44.2908 17.0397 47.4833 23.2489 48.7134C29.4581 49.9435 35.9586 49.1274 41.5417 46.4169L55.25 49.3336Z" stroke="white" stroke-width="4" stroke-linecap="round" stroke-linejoin="round"/>
</svg>
