<svg width="329" height="445" viewBox="0 0 329 445" fill="none" xmlns="http://www.w3.org/2000/svg">
<g filter="url(#filter0_d_0_1)">
<path d="M12.6786 23.694L12.6786 192.053C23.9613 192.053 33.1054 201.574 33.1054 213.321C33.1054 225.068 23.9613 234.589 12.6786 234.589L12.6786 400.957C12.6786 412.851 21.9459 422.5 33.3694 422.5H296.309C307.741 422.5 317 412.851 317 400.957V234.598C305.717 234.598 296.573 225.077 296.573 213.33C296.573 201.583 305.717 192.062 317 192.062V23.7032C317 11.8 307.733 2.16019 296.309 2.16019H33.3694C21.9459 2.14185 12.6786 11.7908 12.6786 23.694Z" fill="white"/>
</g>
<path d="M39.3658 8.66025H39.3666H291.128C301.927 8.66025 310.701 17.5475 310.701 28.5372V187.182C305.199 187.39 300.056 191.002 296.279 195.858C292.382 200.868 289.855 207.302 289.855 212.991C289.855 218.676 292.379 225.381 296.271 230.661C300.041 235.775 305.185 239.67 310.701 239.893V395.445C310.701 406.426 301.936 415.322 291.128 415.322H39.3666C28.5677 415.322 19.7941 406.426 19.7941 395.445L19.7941 239.817C25.3093 239.594 30.4532 235.718 34.2236 230.619C38.1156 225.356 40.6398 218.668 40.6398 212.982C40.6398 207.297 38.1151 200.655 34.2223 195.438C30.4506 190.384 25.3069 186.555 19.7941 186.335L19.7941 28.5286C19.7941 17.5383 28.5678 8.64337 39.3658 8.66025Z" stroke="#E5888D"/>
<line x1="19.3525" y1="283" x2="302.687" y2="283" stroke="#E5888D" stroke-dasharray="5 5"/>
<defs>
<filter id="filter0_d_0_1" x="0.678589" y="0.160156" width="328.321" height="444.34" filterUnits="userSpaceOnUse" color-interpolation-filters="sRGB">
<feFlood flood-opacity="0" result="BackgroundImageFix"/>
<feColorMatrix in="SourceAlpha" type="matrix" values="0 0 0 0 0 0 0 0 0 0 0 0 0 0 0 0 0 0 127 0" result="hardAlpha"/>
<feOffset dy="10"/>
<feGaussianBlur stdDeviation="6"/>
<feComposite in2="hardAlpha" operator="out"/>
<feColorMatrix type="matrix" values="0 0 0 0 0.622989 0 0 0 0 0.389219 0 0 0 0 0.6625 0 0 0 1 0"/>
<feBlend mode="normal" in2="BackgroundImageFix" result="effect1_dropShadow_0_1"/>
<feBlend mode="normal" in="SourceGraphic" in2="effect1_dropShadow_0_1" result="shape"/>
</filter>
</defs>
</svg>

