<svg width="52" height="58" viewBox="0 0 52 58" fill="none" xmlns="http://www.w3.org/2000/svg">
<path d="M8.49935 45.3333L2.66602 42.125V34.8333M2.66602 23.1667V15.8751M2.66602 15.8751L8.49935 12.6667M2.66602 15.8751L8.49935 19.0833M20.166 5.95833L25.9993 2.75L31.8327 5.95833M43.4993 12.6667L49.3327 15.8751M49.3327 15.8751V23.1667M49.3327 15.8751L43.4993 19.0833M49.3327 34.8333V42.125L43.4993 45.3917M31.8327 52.0417L25.9993 55.2501M25.9993 55.2501L20.166 52.0417M25.9993 55.2501V47.9583M25.9993 29.0001L31.8327 25.7917M25.9993 29.0001V36.2917M25.9993 29.0001L20.166 25.7333" stroke="white" stroke-width="4" stroke-linecap="round" stroke-linejoin="round"/>
</svg>
