<svg width="41" height="40" viewBox="0 0 41 40" fill="none" xmlns="http://www.w3.org/2000/svg">
<path d="M20.0605 0C9.03338 0 0.0605469 8.97284 0.0605469 20.0009C0.0605469 31.0285 9.03338 40.0009 20.0605 40.0009C31.0877 40.0009 40.0605 31.0281 40.0605 20.0009C40.061 8.97284 31.0882 0 20.0605 0ZM28.7181 15.9017L18.2413 26.3753C17.9256 26.691 17.5118 26.8491 17.1015 26.8491H17.1011H17.1007C16.6868 26.8491 16.2766 26.691 15.9617 26.3753L11.407 21.8205C10.776 21.1895 10.776 20.1724 11.407 19.5414C11.721 19.2257 12.133 19.068 12.5455 19.068C12.958 19.068 13.3713 19.2257 13.6866 19.5414L17.1007 22.9563L26.438 13.6225C26.752 13.3068 27.164 13.1491 27.5765 13.1491C27.989 13.1491 28.4024 13.3068 28.7176 13.6225C29.3455 14.2535 29.3455 15.2706 28.7181 15.9017Z" fill="#00C07B"/>
<path d="M28.7181 15.9029C29.3455 15.2719 29.3455 14.2548 28.7181 13.6238C28.4028 13.3085 27.9899 13.1508 27.5778 13.1504C27.1654 13.1504 26.7538 13.308 26.4403 13.6238L17.1024 22.958L17.102 22.9576L17.1015 22.958L13.6871 19.5427C13.3718 19.2274 12.9589 19.0697 12.5468 19.0693C12.1344 19.0693 11.7228 19.2269 11.4088 19.5427C10.7778 20.1737 10.7778 21.1908 11.4088 21.8218L15.9635 26.3765C16.2784 26.6923 16.6886 26.8504 17.102 26.8504C17.5122 26.8504 17.9256 26.6923 18.2413 26.3765L28.7181 15.9029Z" fill="white"/>
</svg>
